<?xml version="1.0" encoding="UTF-8"?><svg id="Layer_1" xmlns="http://www.w3.org/2000/svg" viewBox="0 0 1728 1296"><defs><style>.cls-1{fill:none;stroke:#ed2224;stroke-linecap:round;stroke-linejoin:bevel;}</style></defs><polyline class="cls-1" points="50.93 106.45 50.97 105.76 51.09 105.08 51.29 104.41 51.57 103.78 51.91 103.18 52.33 102.62 52.8 102.12 53.33 101.67 53.91 101.29 54.53 100.98 55.18 100.75 55.85 100.59 56.54 100.51 57.23 100.51 57.92 100.59 58.59 100.75 59.24 100.98 59.86 101.29 60.44 101.67 60.97 102.12 61.45 102.62 61.86 103.18 62.2 103.78 62.48 104.41 62.68 105.08 62.8 105.76 62.84 106.45 62.8 107.14 62.68 107.82 62.48 108.48 62.2 109.12 61.86 109.72 61.45 110.27 60.97 110.78 60.44 111.22 59.86 111.6 59.24 111.91 58.59 112.15 57.92 112.31 57.23 112.39 56.54 112.39 55.85 112.31 55.18 112.15 54.53 111.91 53.91 111.6 53.33 111.22 52.8 110.78 52.33 110.27 51.91 109.72 51.57 109.12 51.29 108.48 51.09 107.82 50.97 107.14 50.93 106.45" vector-effect="none"/><polyline class="cls-1" points="831.15 532.34 831.19 531.65 831.31 530.97 831.51 530.31 831.78 529.67 832.13 529.07 832.54 528.52 833.02 528.01 833.55 527.57 834.13 527.19 834.75 526.88 835.4 526.64 836.07 526.48 836.76 526.4 837.45 526.4 838.14 526.48 838.81 526.64 839.46 526.88 840.08 527.19 840.66 527.57 841.19 528.01 841.66 528.52 842.07 529.07 842.42 529.67 842.7 530.31 842.89 530.97 843.01 531.65 843.05 532.34 843.01 533.04 842.89 533.72 842.7 534.38 842.42 535.02 842.07 535.62 841.66 536.17 841.19 536.67 840.66 537.12 840.08 537.5 839.46 537.81 838.81 538.05 838.14 538.21 837.45 538.29 836.76 538.29 836.07 538.21 835.4 538.05 834.75 537.81 834.13 537.5 833.55 537.12 833.02 536.67 832.54 536.17 832.13 535.62 831.78 535.02 831.51 534.38 831.31 533.72 831.19 533.04 831.15 532.34" vector-effect="none"/><polyline class="cls-1" points="50.93 1006.43 50.97 1005.74 51.09 1005.05 51.29 1004.39 51.57 1003.76 51.91 1003.16 52.33 1002.6 52.8 1002.1 53.33 1001.65 53.91 1001.27 54.53 1000.96 55.18 1000.72 55.85 1000.56 56.54 1000.48 57.23 1000.48 57.92 1000.56 58.59 1000.72 59.24 1000.96 59.86 1001.27 60.44 1001.65 60.97 1002.1 61.45 1002.6 61.86 1003.16 62.2 1003.76 62.48 1004.39 62.68 1005.05 62.8 1005.74 62.84 1006.43 62.8 1007.12 62.68 1007.8 62.48 1008.46 62.2 1009.1 61.86 1009.7 61.45 1010.25 60.97 1010.76 60.44 1011.2 59.86 1011.58 59.24 1011.89 58.59 1012.13 57.92 1012.29 57.23 1012.37 56.54 1012.37 55.85 1012.29 55.18 1012.13 54.53 1011.89 53.91 1011.58 53.33 1011.2 52.8 1010.76 52.33 1010.25 51.91 1009.7 51.57 1009.1 51.29 1008.46 51.09 1007.8 50.97 1007.12 50.93 1006.43" vector-effect="none"/><polyline class="cls-1" points="50.93 78.1 50.97 77.41 51.09 76.73 51.29 76.07 51.57 75.43 51.91 74.83 52.33 74.28 52.8 73.77 53.33 73.33 53.91 72.95 54.53 72.64 55.18 72.4 55.85 72.24 56.54 72.16 57.23 72.16 57.92 72.24 58.59 72.4 59.24 72.64 59.86 72.95 60.44 73.33 60.97 73.77 61.45 74.28 61.86 74.83 62.2 75.43 62.48 76.07 62.68 76.73 62.8 77.41 62.84 78.1 62.8 78.79 62.68 79.48 62.48 80.14 62.2 80.77 61.86 81.37 61.45 81.93 60.97 82.43 60.44 82.88 59.86 83.26 59.24 83.57 58.59 83.8 57.92 83.97 57.23 84.04 56.54 84.04 55.85 83.97 55.18 83.8 54.53 83.57 53.91 83.26 53.33 82.88 52.8 82.43 52.33 81.93 51.91 81.37 51.57 80.77 51.29 80.14 51.09 79.48 50.97 78.79 50.93 78.1" vector-effect="none"/><polyline class="cls-1" points="831.15 475.65 831.19 474.96 831.31 474.28 831.51 473.62 831.78 472.98 832.13 472.38 832.54 471.83 833.02 471.32 833.55 470.88 834.13 470.5 834.75 470.19 835.4 469.95 836.07 469.79 836.76 469.71 837.45 469.71 838.14 469.79 838.81 469.95 839.46 470.19 840.08 470.5 840.66 470.88 841.19 471.32 841.66 471.83 842.07 472.38 842.42 472.98 842.7 473.62 842.89 474.28 843.01 474.96 843.05 475.65 843.01 476.34 842.89 477.02 842.7 477.69 842.42 478.32 842.07 478.92 841.66 479.48 841.19 479.98 840.66 480.43 840.08 480.81 839.46 481.12 838.81 481.35 838.14 481.51 837.45 481.59 836.76 481.59 836.07 481.51 835.4 481.35 834.75 481.12 834.13 480.81 833.55 480.43 833.02 479.98 832.54 479.48 832.13 478.92 831.78 478.32 831.51 477.69 831.31 477.02 831.19 476.34 831.15 475.65" vector-effect="none"/><polyline class="cls-1" points="50.93 1034.77 50.97 1034.08 51.09 1033.4 51.29 1032.74 51.57 1032.1 51.91 1031.5 52.33 1030.95 52.8 1030.44 53.33 1030 53.91 1029.62 54.53 1029.31 55.18 1029.07 55.85 1028.91 56.54 1028.83 57.23 1028.83 57.92 1028.91 58.59 1029.07 59.24 1029.31 59.86 1029.62 60.44 1030 60.97 1030.44 61.45 1030.95 61.86 1031.5 62.2 1032.1 62.48 1032.74 62.68 1033.4 62.8 1034.08 62.84 1034.77 62.8 1035.46 62.68 1036.14 62.48 1036.81 62.2 1037.44 61.86 1038.04 61.45 1038.6 60.97 1039.1 60.44 1039.55 59.86 1039.93 59.24 1040.24 58.59 1040.48 57.92 1040.63 57.23 1040.72 56.54 1040.72 55.85 1040.63 55.18 1040.48 54.53 1040.24 53.91 1039.93 53.33 1039.55 52.8 1039.1 52.33 1038.6 51.91 1038.04 51.57 1037.44 51.29 1036.81 51.09 1036.14 50.97 1035.46 50.93 1034.77" vector-effect="none"/><line class="cls-1" x1="868.28" y1="16.45" x2="76.59" y2="16.45" vector-effect="none"/><line class="cls-1" x1="76.59" y1="16.45" x2="76.59" y2="41.96" vector-effect="none"/><polyline class="cls-1" points="879.62 27.79 879.58 26.85 879.47 25.92 879.27 25.01 879.01 24.11 878.67 23.23 878.25 22.39 877.77 21.59 877.23 20.82 876.63 20.11 875.96 19.45 875.25 18.84 874.48 18.3 873.68 17.82 872.84 17.41 871.96 17.07 871.07 16.8 870.15 16.61 869.22 16.49 868.28 16.45" vector-effect="none"/><line class="cls-1" x1="879.62" y1="980.21" x2="879.62" y2="27.79" vector-effect="none"/><polyline class="cls-1" points="76.59 41.96 76.55 42.6 76.44 43.22 76.27 43.84 76.02 44.42 75.72 44.98 75.35 45.5 74.92 45.97 74.45 46.39 73.93 46.76 73.38 47.07 72.79 47.31 72.18 47.49 71.55 47.6 70.92 47.63" vector-effect="none"/><line class="cls-1" x1="23.58" y1="47.63" x2="23.58" y2="1065.24" vector-effect="none"/><line class="cls-1" x1="70.92" y1="47.63" x2="23.58" y2="47.63" vector-effect="none"/><polyline class="cls-1" points="868.28 991.54 869.22 991.51 870.15 991.39 871.07 991.2 871.96 990.93 872.84 990.59 873.68 990.18 874.48 989.7 875.25 989.15 875.96 988.55 876.63 987.88 877.23 987.17 877.77 986.41 878.25 985.6 878.67 984.76 879.01 983.89 879.27 982.99 879.47 982.07 879.58 981.14 879.62 980.21" vector-effect="none"/><polyline class="cls-1" points="533.8 1002.88 533.84 1001.95 533.96 1001.02 534.15 1000.1 534.42 999.2 534.76 998.33 535.17 997.49 535.65 996.68 536.19 995.92 536.8 995.2 537.46 994.54 538.18 993.93 538.94 993.39 539.75 992.91 540.59 992.5 541.46 992.16 542.36 991.89 543.27 991.7 544.2 991.58 545.14 991.54" vector-effect="none"/><line class="cls-1" x1="545.14" y1="991.54" x2="868.28" y2="991.54" vector-effect="none"/><line class="cls-1" x1="533.8" y1="1059.57" x2="533.8" y2="1002.88" vector-effect="none"/><polyline class="cls-1" points="522.46 1070.91 523.4 1070.87 524.33 1070.76 525.25 1070.57 526.14 1070.3 527.02 1069.96 527.86 1069.55 528.66 1069.07 529.43 1068.52 530.14 1067.92 530.81 1067.25 531.41 1066.54 531.96 1065.78 532.44 1064.97 532.85 1064.13 533.19 1063.26 533.46 1062.36 533.65 1061.44 533.76 1060.51 533.8 1059.57" vector-effect="none"/><polyline class="cls-1" points="70.92 1065.24 71.55 1065.28 72.18 1065.38 72.79 1065.56 73.38 1065.8 73.93 1066.11 74.45 1066.48 74.92 1066.9 75.35 1067.38 75.72 1067.9 76.02 1068.45 76.27 1069.04 76.44 1069.65 76.55 1070.28 76.59 1070.91" vector-effect="none"/><line class="cls-1" x1="23.58" y1="1065.24" x2="70.92" y2="1065.24" vector-effect="none"/><line class="cls-1" x1="76.59" y1="1070.91" x2="522.46" y2="1070.91" vector-effect="none"/><line class="cls-1" x1="1296.61" y1="29.25" x2="1332.61" y2="29.25" vector-effect="none"/><line class="cls-1" x1="1296.61" y1="902.3" x2="1332.61" y2="902.3" vector-effect="none"/><line class="cls-1" x1="1296.61" y1="37.74" x2="1296.61" y2="29.25" vector-effect="none"/><line class="cls-1" x1="1224.62" y1="37.74" x2="1296.61" y2="37.74" vector-effect="none"/><line class="cls-1" x1="1224.62" y1="29.25" x2="1224.62" y2="37.74" vector-effect="none"/><line class="cls-1" x1="1152.62" y1="29.25" x2="1224.62" y2="29.25" vector-effect="none"/><line class="cls-1" x1="1152.62" y1="37.74" x2="1152.62" y2="29.25" vector-effect="none"/><line class="cls-1" x1="1080.62" y1="37.74" x2="1152.62" y2="37.74" vector-effect="none"/><line class="cls-1" x1="1080.62" y1="29.25" x2="1080.62" y2="37.74" vector-effect="none"/><line class="cls-1" x1="1008.62" y1="29.25" x2="1080.62" y2="29.25" vector-effect="none"/><line class="cls-1" x1="1008.62" y1="37.74" x2="1008.62" y2="29.25" vector-effect="none"/><line class="cls-1" x1="904.59" y1="37.74" x2="1008.62" y2="37.74" vector-effect="none"/><line class="cls-1" x1="904.59" y1="141.78" x2="904.59" y2="37.74" vector-effect="none"/><line class="cls-1" x1="896.09" y1="141.78" x2="904.59" y2="141.78" vector-effect="none"/><line class="cls-1" x1="896.09" y1="213.78" x2="896.09" y2="141.78" vector-effect="none"/><line class="cls-1" x1="904.59" y1="213.78" x2="896.09" y2="213.78" vector-effect="none"/><line class="cls-1" x1="904.59" y1="285.78" x2="904.59" y2="213.78" vector-effect="none"/><line class="cls-1" x1="896.09" y1="285.78" x2="904.59" y2="285.78" vector-effect="none"/><line class="cls-1" x1="896.09" y1="357.78" x2="896.09" y2="285.78" vector-effect="none"/><line class="cls-1" x1="904.59" y1="357.78" x2="896.09" y2="357.78" vector-effect="none"/><line class="cls-1" x1="904.59" y1="429.78" x2="904.59" y2="357.78" vector-effect="none"/><line class="cls-1" x1="896.09" y1="429.78" x2="904.59" y2="429.78" vector-effect="none"/><line class="cls-1" x1="896.09" y1="501.78" x2="896.09" y2="429.78" vector-effect="none"/><line class="cls-1" x1="904.59" y1="501.78" x2="896.09" y2="501.78" vector-effect="none"/><line class="cls-1" x1="904.59" y1="573.78" x2="904.59" y2="501.78" vector-effect="none"/><line class="cls-1" x1="896.09" y1="573.78" x2="904.59" y2="573.78" vector-effect="none"/><line class="cls-1" x1="896.09" y1="645.76" x2="896.09" y2="573.78" vector-effect="none"/><line class="cls-1" x1="904.59" y1="645.76" x2="896.09" y2="645.76" vector-effect="none"/><line class="cls-1" x1="904.59" y1="717.77" x2="904.59" y2="645.76" vector-effect="none"/><line class="cls-1" x1="896.09" y1="717.77" x2="904.59" y2="717.77" vector-effect="none"/><line class="cls-1" x1="896.09" y1="789.77" x2="896.09" y2="717.77" vector-effect="none"/><line class="cls-1" x1="904.59" y1="789.77" x2="896.09" y2="789.77" vector-effect="none"/><line class="cls-1" x1="904.59" y1="893.79" x2="904.59" y2="789.77" vector-effect="none"/><line class="cls-1" x1="904.59" y1="893.79" x2="1008.62" y2="893.79" vector-effect="none"/><line class="cls-1" x1="1008.62" y1="893.79" x2="1008.62" y2="902.3" vector-effect="none"/><line class="cls-1" x1="1008.62" y1="902.3" x2="1080.62" y2="902.3" vector-effect="none"/><line class="cls-1" x1="1080.62" y1="893.79" x2="1080.62" y2="902.3" vector-effect="none"/><line class="cls-1" x1="1152.62" y1="893.79" x2="1080.62" y2="893.79" vector-effect="none"/><line class="cls-1" x1="1152.62" y1="902.3" x2="1152.62" y2="893.79" vector-effect="none"/><line class="cls-1" x1="1152.62" y1="902.3" x2="1224.62" y2="902.3" vector-effect="none"/><line class="cls-1" x1="1224.62" y1="893.79" x2="1224.62" y2="902.3" vector-effect="none"/><line class="cls-1" x1="1296.61" y1="893.79" x2="1224.62" y2="893.79" vector-effect="none"/><line class="cls-1" x1="1296.61" y1="902.3" x2="1296.61" y2="893.79" vector-effect="none"/><line class="cls-1" x1="1332.61" y1="902.3" x2="1332.61" y2="29.25" vector-effect="none"/></svg>