<?xml version="1.0" encoding="UTF-8"?><svg id="Layer_1" xmlns="http://www.w3.org/2000/svg" viewBox="0 0 1728 1296"><defs><style>.cls-1{fill:none;stroke:#ed2224;stroke-linecap:round;stroke-linejoin:bevel;}</style></defs><polyline class="cls-1" points="28.81 905.11 28.85 906.05 28.97 906.98 29.16 907.89 29.43 908.79 29.77 909.66 30.18 910.51 30.66 911.31 31.2 912.07 31.81 912.79 32.47 913.45 33.19 914.06 33.95 914.6 34.75 915.08 35.6 915.49 36.47 915.83 37.37 916.1 38.28 916.29 39.21 916.41 40.15 916.45" vector-effect="none"/><line class="cls-1" x1="28.81" y1="37.72" x2="28.81" y2="905.11" vector-effect="none"/><polyline class="cls-1" points="40.15 26.39 39.21 26.44 38.28 26.54 37.37 26.73 36.47 27.02 35.6 27.35 34.75 27.76 33.95 28.24 33.19 28.79 32.47 29.39 31.81 30.04 31.2 30.76 30.66 31.53 30.18 32.34 29.77 33.18 29.43 34.05 29.16 34.94 28.97 35.87 28.85 36.78 28.81 37.72" vector-effect="none"/><line class="cls-1" x1="40.15" y1="916.45" x2="1162.64" y2="916.45" vector-effect="none"/><line class="cls-1" x1="1162.64" y1="26.39" x2="40.15" y2="26.39" vector-effect="none"/><polyline class="cls-1" points="1162.64 916.45 1163.58 916.41 1164.51 916.29 1165.42 916.1 1166.32 915.83 1167.2 915.49 1168.04 915.08 1168.84 914.6 1169.61 914.06 1170.32 913.45 1170.98 912.79 1171.59 912.07 1172.13 911.31 1172.61 910.51 1173.03 909.66 1173.37 908.79 1173.63 907.89 1173.82 906.98 1173.94 906.05 1173.98 905.11" vector-effect="none"/><polyline class="cls-1" points="1173.98 37.72 1173.94 36.78 1173.82 35.87 1173.63 34.94 1173.37 34.05 1173.03 33.18 1172.61 32.34 1172.13 31.53 1171.59 30.76 1170.98 30.04 1170.32 29.39 1169.61 28.79 1168.84 28.24 1168.04 27.76 1167.2 27.35 1166.32 27.02 1165.42 26.73 1164.51 26.54 1163.58 26.44 1162.64 26.39" vector-effect="none"/><line class="cls-1" x1="1173.98" y1="905.11" x2="1173.98" y2="37.72" vector-effect="none"/><polyline class="cls-1" points="41.57 856.65 40.96 856.67 40.37 856.79 39.8 857.01 39.26 857.27 38.76 857.61 38.31 858.01 37.92 858.49 37.59 859 37.34 859.55 37.16 860.13 37.06 860.73 37.03 861.33 37.1 861.93 37.24 862.53 37.45 863.08 37.74 863.61 38.1 864.11 38.53 864.54 39 864.9 39.52 865.21 40.08 865.45 40.66 865.62 41.26 865.69 41.87 865.69 42.47 865.62 43.06 865.45 43.61 865.21 44.13 864.9 44.61 864.54 45.03 864.11 45.39 863.61 45.68 863.08 45.9 862.53 46.04 861.93 46.1 861.33 46.08 860.73 45.98 860.13 45.8 859.55 45.54 859 45.22 858.49 44.83 858.01 44.38 857.61 43.88 857.27 43.34 857.01 42.77 856.79 42.17 856.67 41.57 856.65" vector-effect="none"/><polyline class="cls-1" points="41.57 77.13 40.96 77.18 40.37 77.3 39.8 77.49 39.26 77.75 38.76 78.11 38.31 78.52 37.92 78.98 37.59 79.48 37.34 80.03 37.16 80.61 37.06 81.21 37.03 81.81 37.1 82.41 37.24 83.01 37.45 83.58 37.74 84.11 38.1 84.59 38.53 85.02 39 85.41 39.52 85.72 40.08 85.96 40.66 86.1 41.26 86.2 41.87 86.2 42.47 86.1 43.06 85.96 43.61 85.72 44.13 85.41 44.61 85.02 45.03 84.59 45.39 84.11 45.68 83.58 45.9 83.01 46.04 82.41 46.1 81.81 46.08 81.21 45.98 80.61 45.8 80.03 45.54 79.48 45.22 78.98 44.83 78.52 44.38 78.11 43.88 77.75 43.34 77.49 42.77 77.3 42.17 77.18 41.57 77.13" vector-effect="none"/><polyline class="cls-1" points="84.09 34.6 83.48 34.65 82.89 34.77 82.32 34.96 81.77 35.25 81.28 35.58 80.83 35.99 80.43 36.45 80.11 36.98 79.85 37.53 79.67 38.1 79.57 38.7 79.55 39.3 79.61 39.9 79.75 40.48 79.97 41.06 80.26 41.58 80.62 42.06 81.04 42.52 81.52 42.88 82.04 43.19 82.6 43.43 83.18 43.6 83.78 43.67 84.39 43.67 84.99 43.6 85.57 43.43 86.13 43.19 86.65 42.88 87.13 42.52 87.55 42.06 87.91 41.58 88.2 41.06 88.42 40.48 88.56 39.9 88.62 39.3 88.6 38.7 88.5 38.1 88.32 37.53 88.06 36.98 87.74 36.45 87.35 35.99 86.9 35.58 86.4 35.25 85.86 34.96 85.28 34.77 84.69 34.65 84.09 34.6" vector-effect="none"/><polyline class="cls-1" points="84.09 899.16 83.48 899.2 82.89 899.32 82.32 899.52 81.77 899.79 81.28 900.13 80.83 900.54 80.43 901 80.11 901.51 79.85 902.06 79.67 902.64 79.57 903.24 79.55 903.84 79.61 904.45 79.75 905.03 79.97 905.6 80.26 906.13 80.62 906.62 81.04 907.06 81.52 907.43 82.04 907.74 82.6 907.98 83.18 908.14 83.78 908.22 84.39 908.22 84.99 908.14 85.57 907.98 86.13 907.74 86.65 907.43 87.13 907.06 87.55 906.62 87.91 906.13 88.2 905.6 88.42 905.03 88.56 904.45 88.62 903.84 88.6 903.24 88.5 902.64 88.32 902.06 88.06 901.51 87.74 901 87.35 900.54 86.9 900.13 86.4 899.79 85.86 899.52 85.28 899.32 84.69 899.2 84.09 899.16" vector-effect="none"/><polyline class="cls-1" points="419.98 348.98 419.38 349 418.78 349.12 418.21 349.34 417.67 349.6 417.17 349.94 416.72 350.34 416.33 350.8 416.01 351.33 415.75 351.88 415.57 352.46 415.47 353.06 415.45 353.66 415.51 354.26 415.65 354.86 415.87 355.41 416.16 355.94 416.52 356.44 416.94 356.87 417.42 357.23 417.94 357.54 418.49 357.78 419.08 357.95 419.68 358.02 420.29 358.02 420.89 357.95 421.47 357.78 422.03 357.54 422.55 357.23 423.03 356.87 423.45 356.44 423.81 355.94 424.1 355.41 424.31 354.86 424.46 354.26 424.52 353.66 424.5 353.06 424.4 352.46 424.22 351.88 423.96 351.33 423.64 350.8 423.24 350.34 422.8 349.94 422.29 349.6 421.75 349.34 421.18 349.12 420.59 349 419.98 348.98" vector-effect="none"/><polyline class="cls-1" points="601.4 34.6 600.79 34.65 600.2 34.77 599.63 34.96 599.08 35.25 598.59 35.58 598.14 35.99 597.75 36.45 597.42 36.98 597.16 37.53 596.98 38.1 596.88 38.7 596.86 39.3 596.92 39.9 597.06 40.48 597.28 41.06 597.57 41.58 597.93 42.06 598.35 42.52 598.83 42.88 599.35 43.19 599.91 43.43 600.49 43.6 601.09 43.67 601.7 43.67 602.3 43.6 602.88 43.43 603.44 43.19 603.96 42.88 604.44 42.52 604.86 42.06 605.22 41.58 605.51 41.06 605.73 40.48 605.87 39.9 605.93 39.3 605.91 38.7 605.81 38.1 605.63 37.53 605.37 36.98 605.05 36.45 604.66 35.99 604.21 35.58 603.71 35.25 603.17 34.96 602.6 34.77 602 34.65 601.4 34.6" vector-effect="none"/><polyline class="cls-1" points="601.4 899.16 600.79 899.2 600.2 899.32 599.63 899.52 599.08 899.79 598.59 900.13 598.14 900.54 597.75 901 597.42 901.51 597.16 902.06 596.98 902.64 596.88 903.24 596.86 903.84 596.92 904.45 597.06 905.03 597.28 905.6 597.57 906.13 597.93 906.62 598.35 907.06 598.83 907.43 599.35 907.74 599.91 907.98 600.49 908.14 601.09 908.22 601.7 908.22 602.3 908.14 602.88 907.98 603.44 907.74 603.96 907.43 604.44 907.06 604.86 906.62 605.22 906.13 605.51 905.6 605.73 905.03 605.87 904.45 605.93 903.84 605.91 903.24 605.81 902.64 605.63 902.06 605.37 901.51 605.05 901 604.66 900.54 604.21 900.13 603.71 899.79 603.17 899.52 602.6 899.32 602 899.2 601.4 899.16" vector-effect="none"/><polyline class="cls-1" points="714.78 643.77 714.17 643.79 713.58 643.91 713.01 644.13 712.47 644.39 711.97 644.73 711.52 645.13 711.13 645.61 710.8 646.12 710.55 646.67 710.37 647.25 710.27 647.85 710.25 648.45 710.31 649.05 710.45 649.65 710.66 650.2 710.96 650.73 711.32 651.23 711.74 651.66 712.21 652.05 712.73 652.33 713.29 652.57 713.88 652.74 714.48 652.81 715.08 652.81 715.68 652.74 716.27 652.57 716.83 652.33 717.35 652.05 717.82 651.66 718.24 651.23 718.6 650.73 718.89 650.2 719.11 649.65 719.25 649.05 719.31 648.45 719.29 647.85 719.19 647.25 719.01 646.67 718.76 646.12 718.43 645.61 718.04 645.13 717.59 644.73 717.09 644.39 716.55 644.13 715.98 643.91 715.38 643.79 714.78 643.77" vector-effect="none"/><polyline class="cls-1" points="714.78 348.98 714.17 349 713.58 349.12 713.01 349.34 712.47 349.6 711.97 349.94 711.52 350.34 711.13 350.8 710.8 351.33 710.55 351.88 710.37 352.46 710.27 353.06 710.25 353.66 710.31 354.26 710.45 354.86 710.66 355.41 710.96 355.94 711.32 356.44 711.74 356.87 712.21 357.23 712.73 357.54 713.29 357.78 713.88 357.95 714.48 358.02 715.08 358.02 715.68 357.95 716.27 357.78 716.83 357.54 717.35 357.23 717.82 356.87 718.24 356.44 718.6 355.94 718.89 355.41 719.11 354.86 719.25 354.26 719.31 353.66 719.29 353.06 719.19 352.46 719.01 351.88 718.76 351.33 718.43 350.8 718.04 350.34 717.59 349.94 717.09 349.6 716.55 349.34 715.98 349.12 715.38 349 714.78 348.98" vector-effect="none"/><polyline class="cls-1" points="1118.71 899.16 1118.1 899.2 1117.51 899.32 1116.94 899.52 1116.4 899.79 1115.9 900.13 1115.44 900.54 1115.05 901 1114.73 901.51 1114.47 902.06 1114.29 902.64 1114.19 903.24 1114.17 903.84 1114.23 904.45 1114.37 905.03 1114.59 905.6 1114.88 906.13 1115.24 906.62 1115.66 907.06 1116.14 907.43 1116.66 907.74 1117.22 907.98 1117.8 908.14 1118.4 908.22 1119.01 908.22 1119.61 908.14 1120.19 907.98 1120.75 907.74 1121.27 907.43 1121.75 907.06 1122.17 906.62 1122.53 906.13 1122.82 905.6 1123.04 905.03 1123.18 904.45 1123.24 903.84 1123.22 903.24 1123.12 902.64 1122.94 902.06 1122.68 901.51 1122.36 901 1121.97 900.54 1121.52 900.13 1121.02 899.79 1120.48 899.52 1119.9 899.32 1119.31 899.2 1118.71 899.16" vector-effect="none"/><polyline class="cls-1" points="1118.71 34.6 1118.1 34.65 1117.51 34.77 1116.94 34.96 1116.4 35.25 1115.9 35.58 1115.44 35.99 1115.05 36.45 1114.73 36.98 1114.47 37.53 1114.29 38.1 1114.19 38.7 1114.17 39.3 1114.23 39.9 1114.37 40.48 1114.59 41.06 1114.88 41.58 1115.24 42.06 1115.66 42.52 1116.14 42.88 1116.66 43.19 1117.22 43.43 1117.8 43.6 1118.4 43.67 1119.01 43.67 1119.61 43.6 1120.19 43.43 1120.75 43.19 1121.27 42.88 1121.75 42.52 1122.17 42.06 1122.53 41.58 1122.82 41.06 1123.04 40.48 1123.18 39.9 1123.24 39.3 1123.22 38.7 1123.12 38.1 1122.94 37.53 1122.68 36.98 1122.36 36.45 1121.97 35.99 1121.52 35.58 1121.02 35.25 1120.48 34.96 1119.9 34.77 1119.31 34.65 1118.71 34.6" vector-effect="none"/><polyline class="cls-1" points="1161.22 856.65 1160.62 856.67 1160.03 856.79 1159.45 857.01 1158.91 857.27 1158.41 857.61 1157.96 858.01 1157.57 858.49 1157.25 859 1156.99 859.55 1156.81 860.13 1156.71 860.73 1156.69 861.33 1156.75 861.93 1156.89 862.53 1157.11 863.08 1157.4 863.61 1157.76 864.11 1158.18 864.54 1158.66 864.9 1159.18 865.21 1159.74 865.45 1160.32 865.62 1160.92 865.69 1161.53 865.69 1162.13 865.62 1162.71 865.45 1163.27 865.21 1163.79 864.9 1164.27 864.54 1164.69 864.11 1165.05 863.61 1165.34 863.08 1165.56 862.53 1165.7 861.93 1165.76 861.33 1165.74 860.73 1165.64 860.13 1165.46 859.55 1165.2 859 1164.88 858.49 1164.48 858.01 1164.04 857.61 1163.54 857.27 1163 857.01 1162.42 856.79 1161.83 856.67 1161.22 856.65" vector-effect="none"/><polyline class="cls-1" points="1161.22 77.13 1160.62 77.18 1160.03 77.3 1159.45 77.49 1158.91 77.75 1158.41 78.11 1157.96 78.52 1157.57 78.98 1157.25 79.48 1156.99 80.03 1156.81 80.61 1156.71 81.21 1156.69 81.81 1156.75 82.41 1156.89 83.01 1157.11 83.58 1157.4 84.11 1157.76 84.59 1158.18 85.02 1158.66 85.41 1159.18 85.72 1159.74 85.96 1160.32 86.1 1160.92 86.2 1161.53 86.2 1162.13 86.1 1162.71 85.96 1163.27 85.72 1163.79 85.41 1164.27 85.02 1164.69 84.59 1165.05 84.11 1165.34 83.58 1165.56 83.01 1165.7 82.41 1165.76 81.81 1165.74 81.21 1165.64 80.61 1165.46 80.03 1165.2 79.48 1164.88 78.98 1164.48 78.52 1164.04 78.11 1163.54 77.75 1163 77.49 1162.42 77.3 1161.83 77.18 1161.22 77.13" vector-effect="none"/><line class="cls-1" x1="908.07" y1="925.29" x2="908.07" y2="943.29" vector-effect="none"/><line class="cls-1" x1="908.07" y1="943.29" x2="899.56" y2="943.29" vector-effect="none"/><line class="cls-1" x1="899.56" y1="943.29" x2="899.56" y2="961.29" vector-effect="none"/><line class="cls-1" x1="899.56" y1="961.29" x2="908.07" y2="961.29" vector-effect="none"/><line class="cls-1" x1="908.07" y1="961.29" x2="908.07" y2="979.29" vector-effect="none"/><line class="cls-1" x1="908.07" y1="979.29" x2="899.56" y2="979.29" vector-effect="none"/><line class="cls-1" x1="899.56" y1="979.29" x2="899.56" y2="997.29" vector-effect="none"/><line class="cls-1" x1="899.56" y1="997.29" x2="908.07" y2="997.29" vector-effect="none"/><line class="cls-1" x1="908.07" y1="997.29" x2="908.07" y2="1015.29" vector-effect="none"/><line class="cls-1" x1="908.07" y1="1015.29" x2="899.56" y2="1015.29" vector-effect="none"/><line class="cls-1" x1="899.56" y1="1015.29" x2="899.56" y2="1033.29" vector-effect="none"/><line class="cls-1" x1="899.56" y1="1033.29" x2="908.07" y2="1033.29" vector-effect="none"/><line class="cls-1" x1="908.07" y1="1033.29" x2="908.07" y2="1051.29" vector-effect="none"/><line class="cls-1" x1="908.07" y1="1051.29" x2="899.56" y2="1051.29" vector-effect="none"/><line class="cls-1" x1="899.56" y1="1051.29" x2="899.56" y2="1069.29" vector-effect="none"/><line class="cls-1" x1="908.07" y1="1069.29" x2="908.07" y2="1087.29" vector-effect="none"/><line class="cls-1" x1="908.07" y1="1087.29" x2="899.56" y2="1087.29" vector-effect="none"/><line class="cls-1" x1="899.56" y1="1087.29" x2="899.56" y2="1105.29" vector-effect="none"/><line class="cls-1" x1="899.56" y1="1105.29" x2="908.07" y2="1105.29" vector-effect="none"/><line class="cls-1" x1="908.07" y1="1105.29" x2="908.07" y2="1123.29" vector-effect="none"/><line class="cls-1" x1="908.07" y1="1123.29" x2="899.56" y2="1123.29" vector-effect="none"/><line class="cls-1" x1="899.56" y1="1123.29" x2="899.56" y2="1141.29" vector-effect="none"/><line class="cls-1" x1="899.56" y1="1141.29" x2="908.07" y2="1141.29" vector-effect="none"/><line class="cls-1" x1="908.07" y1="1141.29" x2="908.07" y2="1159.28" vector-effect="none"/><line class="cls-1" x1="908.07" y1="1159.28" x2="899.56" y2="1159.28" vector-effect="none"/><line class="cls-1" x1="899.56" y1="1159.28" x2="899.56" y2="1177.28" vector-effect="none"/><line class="cls-1" x1="43.52" y1="1177.28" x2="899.56" y2="1177.28" vector-effect="none"/><line class="cls-1" x1="43.52" y1="1159.28" x2="43.52" y2="1177.28" vector-effect="none"/><line class="cls-1" x1="35.02" y1="1159.28" x2="43.52" y2="1159.28" vector-effect="none"/><line class="cls-1" x1="35.02" y1="1141.29" x2="35.02" y2="1159.28" vector-effect="none"/><line class="cls-1" x1="43.52" y1="1141.29" x2="35.02" y2="1141.29" vector-effect="none"/><line class="cls-1" x1="43.52" y1="1123.29" x2="43.52" y2="1141.29" vector-effect="none"/><line class="cls-1" x1="35.02" y1="1123.29" x2="43.52" y2="1123.29" vector-effect="none"/><line class="cls-1" x1="35.02" y1="1105.29" x2="35.02" y2="1123.29" vector-effect="none"/><line class="cls-1" x1="43.52" y1="1105.29" x2="35.02" y2="1105.29" vector-effect="none"/><line class="cls-1" x1="43.52" y1="1087.29" x2="43.52" y2="1105.29" vector-effect="none"/><line class="cls-1" x1="35.02" y1="1087.29" x2="43.52" y2="1087.29" vector-effect="none"/><line class="cls-1" x1="35.02" y1="1069.29" x2="35.02" y2="1087.29" vector-effect="none"/><line class="cls-1" x1="43.52" y1="1069.29" x2="35.02" y2="1069.29" vector-effect="none"/><line class="cls-1" x1="43.52" y1="1051.29" x2="43.52" y2="1069.29" vector-effect="none"/><line class="cls-1" x1="35.02" y1="1051.29" x2="43.52" y2="1051.29" vector-effect="none"/><line class="cls-1" x1="35.02" y1="1033.29" x2="35.02" y2="1051.29" vector-effect="none"/><line class="cls-1" x1="43.52" y1="1033.29" x2="35.02" y2="1033.29" vector-effect="none"/><line class="cls-1" x1="43.52" y1="1015.29" x2="43.52" y2="1033.29" vector-effect="none"/><line class="cls-1" x1="35.02" y1="1015.29" x2="43.52" y2="1015.29" vector-effect="none"/><line class="cls-1" x1="35.02" y1="997.29" x2="35.02" y2="1015.29" vector-effect="none"/><line class="cls-1" x1="43.52" y1="997.29" x2="35.02" y2="997.29" vector-effect="none"/><line class="cls-1" x1="43.52" y1="979.29" x2="43.52" y2="997.29" vector-effect="none"/><line class="cls-1" x1="35.02" y1="979.29" x2="43.52" y2="979.29" vector-effect="none"/><line class="cls-1" x1="35.02" y1="961.29" x2="35.02" y2="979.29" vector-effect="none"/><line class="cls-1" x1="43.52" y1="961.29" x2="35.02" y2="961.29" vector-effect="none"/><line class="cls-1" x1="43.52" y1="943.29" x2="43.52" y2="961.29" vector-effect="none"/><line class="cls-1" x1="35.02" y1="943.29" x2="43.52" y2="943.29" vector-effect="none"/><line class="cls-1" x1="35.02" y1="925.29" x2="35.02" y2="943.29" vector-effect="none"/><line class="cls-1" x1="147.55" y1="925.29" x2="147.55" y2="933.79" vector-effect="none"/><line class="cls-1" x1="219.55" y1="933.79" x2="147.55" y2="933.79" vector-effect="none"/><line class="cls-1" x1="219.55" y1="925.29" x2="219.55" y2="933.79" vector-effect="none"/><line class="cls-1" x1="291.55" y1="925.29" x2="291.55" y2="933.79" vector-effect="none"/><line class="cls-1" x1="363.54" y1="933.79" x2="291.55" y2="933.79" vector-effect="none"/><line class="cls-1" x1="363.54" y1="925.29" x2="363.54" y2="933.79" vector-effect="none"/><line class="cls-1" x1="435.54" y1="925.29" x2="435.54" y2="933.79" vector-effect="none"/><line class="cls-1" x1="507.54" y1="933.79" x2="435.54" y2="933.79" vector-effect="none"/><line class="cls-1" x1="507.54" y1="925.29" x2="507.54" y2="933.79" vector-effect="none"/><line class="cls-1" x1="579.54" y1="925.29" x2="579.54" y2="933.79" vector-effect="none"/><line class="cls-1" x1="651.54" y1="933.79" x2="579.54" y2="933.79" vector-effect="none"/><line class="cls-1" x1="651.54" y1="925.29" x2="651.54" y2="933.79" vector-effect="none"/><line class="cls-1" x1="723.54" y1="925.29" x2="723.54" y2="933.79" vector-effect="none"/><line class="cls-1" x1="795.53" y1="933.79" x2="723.54" y2="933.79" vector-effect="none"/><line class="cls-1" x1="795.53" y1="925.29" x2="795.53" y2="933.79" vector-effect="none"/><line class="cls-1" x1="795.53" y1="925.29" x2="908.07" y2="925.29" vector-effect="none"/><line class="cls-1" x1="899.56" y1="1069.29" x2="908.07" y2="1069.29" vector-effect="none"/><line class="cls-1" x1="35.02" y1="925.29" x2="147.55" y2="925.29" vector-effect="none"/><line class="cls-1" x1="219.55" y1="925.29" x2="291.55" y2="925.29" vector-effect="none"/><line class="cls-1" x1="363.54" y1="925.29" x2="435.54" y2="925.29" vector-effect="none"/><line class="cls-1" x1="507.54" y1="925.29" x2="579.54" y2="925.29" vector-effect="none"/><line class="cls-1" x1="651.54" y1="925.29" x2="723.54" y2="925.29" vector-effect="none"/><line class="cls-1" x1="1196.31" y1="910.9" x2="1196.31" y2="37.86" vector-effect="none"/><line class="cls-1" x1="1196.31" y1="910.9" x2="1232.3" y2="910.9" vector-effect="none"/><line class="cls-1" x1="1196.31" y1="37.86" x2="1232.3" y2="37.86" vector-effect="none"/><line class="cls-1" x1="1232.3" y1="37.86" x2="1232.3" y2="46.35" vector-effect="none"/><line class="cls-1" x1="1232.3" y1="46.35" x2="1304.3" y2="46.35" vector-effect="none"/><line class="cls-1" x1="1304.3" y1="46.35" x2="1304.3" y2="37.86" vector-effect="none"/><line class="cls-1" x1="1304.3" y1="37.86" x2="1376.3" y2="37.86" vector-effect="none"/><line class="cls-1" x1="1376.3" y1="37.86" x2="1376.3" y2="46.35" vector-effect="none"/><line class="cls-1" x1="1376.3" y1="46.35" x2="1448.3" y2="46.35" vector-effect="none"/><line class="cls-1" x1="1448.3" y1="46.35" x2="1448.3" y2="37.86" vector-effect="none"/><line class="cls-1" x1="1448.3" y1="37.86" x2="1520.3" y2="37.86" vector-effect="none"/><line class="cls-1" x1="1520.3" y1="37.86" x2="1520.3" y2="46.35" vector-effect="none"/><line class="cls-1" x1="1520.3" y1="46.35" x2="1624.33" y2="46.35" vector-effect="none"/><line class="cls-1" x1="1624.33" y1="46.35" x2="1624.33" y2="150.39" vector-effect="none"/><line class="cls-1" x1="1624.33" y1="150.39" x2="1632.83" y2="150.39" vector-effect="none"/><line class="cls-1" x1="1632.83" y1="222.39" x2="1632.83" y2="150.39" vector-effect="none"/><line class="cls-1" x1="1632.83" y1="222.39" x2="1624.33" y2="222.39" vector-effect="none"/><line class="cls-1" x1="1624.33" y1="222.39" x2="1624.33" y2="294.37" vector-effect="none"/><line class="cls-1" x1="1624.33" y1="294.37" x2="1632.83" y2="294.37" vector-effect="none"/><line class="cls-1" x1="1632.83" y1="366.37" x2="1632.83" y2="294.37" vector-effect="none"/><line class="cls-1" x1="1632.83" y1="366.37" x2="1624.33" y2="366.37" vector-effect="none"/><line class="cls-1" x1="1624.33" y1="366.37" x2="1624.33" y2="438.37" vector-effect="none"/><line class="cls-1" x1="1624.33" y1="438.37" x2="1632.83" y2="438.37" vector-effect="none"/><line class="cls-1" x1="1632.83" y1="510.37" x2="1632.83" y2="438.37" vector-effect="none"/><line class="cls-1" x1="1632.83" y1="510.37" x2="1624.33" y2="510.37" vector-effect="none"/><line class="cls-1" x1="1624.33" y1="510.37" x2="1624.33" y2="582.37" vector-effect="none"/><line class="cls-1" x1="1624.33" y1="582.37" x2="1632.83" y2="582.37" vector-effect="none"/><line class="cls-1" x1="1632.83" y1="654.37" x2="1632.83" y2="582.37" vector-effect="none"/><line class="cls-1" x1="1632.83" y1="654.37" x2="1624.33" y2="654.37" vector-effect="none"/><line class="cls-1" x1="1624.33" y1="654.37" x2="1624.33" y2="726.37" vector-effect="none"/><line class="cls-1" x1="1624.33" y1="726.37" x2="1632.83" y2="726.37" vector-effect="none"/><line class="cls-1" x1="1632.83" y1="798.37" x2="1632.83" y2="726.37" vector-effect="none"/><line class="cls-1" x1="1632.83" y1="798.37" x2="1624.33" y2="798.37" vector-effect="none"/><line class="cls-1" x1="1624.33" y1="798.37" x2="1624.33" y2="902.4" vector-effect="none"/><line class="cls-1" x1="1624.33" y1="902.4" x2="1520.3" y2="902.4" vector-effect="none"/><line class="cls-1" x1="1520.3" y1="902.4" x2="1520.3" y2="910.9" vector-effect="none"/><line class="cls-1" x1="1448.3" y1="910.9" x2="1520.3" y2="910.9" vector-effect="none"/><line class="cls-1" x1="1448.3" y1="910.9" x2="1448.3" y2="902.4" vector-effect="none"/><line class="cls-1" x1="1448.3" y1="902.4" x2="1376.3" y2="902.4" vector-effect="none"/><line class="cls-1" x1="1376.3" y1="902.4" x2="1376.3" y2="910.9" vector-effect="none"/><line class="cls-1" x1="1304.3" y1="910.9" x2="1376.3" y2="910.9" vector-effect="none"/><line class="cls-1" x1="1304.3" y1="910.9" x2="1304.3" y2="902.4" vector-effect="none"/><line class="cls-1" x1="1304.3" y1="902.4" x2="1232.3" y2="902.4" vector-effect="none"/><line class="cls-1" x1="1232.3" y1="902.4" x2="1232.3" y2="910.9" vector-effect="none"/></svg>