<?xml version="1.0" encoding="UTF-8"?><svg id="Layer_1" xmlns="http://www.w3.org/2000/svg" viewBox="0 0 1728 1296"><defs><style>.cls-1{fill:none;stroke:#ed2224;stroke-linecap:round;stroke-linejoin:bevel;}</style></defs><polyline class="cls-1" points="29.47 894.97 29.51 895.91 29.62 896.84 29.81 897.76 30.08 898.65 30.42 899.53 30.83 900.37 31.31 901.17 31.86 901.94 32.46 902.65 33.13 903.31 33.84 903.92 34.6 904.46 35.41 904.94 36.25 905.35 37.12 905.7 38.02 905.96 38.94 906.16 39.87 906.27 40.81 906.31" vector-effect="none"/><line class="cls-1" x1="29.47" y1="27.58" x2="29.47" y2="894.97" vector-effect="none"/><polyline class="cls-1" points="40.81 16.26 39.87 16.3 38.94 16.4 38.02 16.59 37.12 16.88 36.25 17.22 35.41 17.62 34.6 18.1 33.84 18.66 33.13 19.26 32.46 19.9 31.86 20.62 31.31 21.39 30.83 22.21 30.42 23.05 30.08 23.91 29.81 24.8 29.62 25.74 29.51 26.65 29.47 27.58" vector-effect="none"/><line class="cls-1" x1="40.81" y1="906.31" x2="1163.3" y2="906.31" vector-effect="none"/><line class="cls-1" x1="1163.3" y1="16.26" x2="40.81" y2="16.26" vector-effect="none"/><polyline class="cls-1" points="1163.3 906.31 1164.23 906.27 1165.16 906.16 1166.08 905.96 1166.98 905.7 1167.85 905.35 1168.69 904.94 1169.5 904.46 1170.26 903.92 1170.98 903.31 1171.64 902.65 1172.25 901.94 1172.79 901.17 1173.27 900.37 1173.68 899.53 1174.02 898.65 1174.29 897.76 1174.48 896.84 1174.6 895.91 1174.64 894.97" vector-effect="none"/><polyline class="cls-1" points="1174.64 27.58 1174.6 26.65 1174.48 25.74 1174.29 24.8 1174.02 23.91 1173.68 23.05 1173.27 22.21 1172.79 21.39 1172.25 20.62 1171.64 19.9 1170.98 19.26 1170.26 18.66 1169.5 18.1 1168.69 17.62 1167.85 17.22 1166.98 16.88 1166.08 16.59 1165.16 16.4 1164.23 16.3 1163.3 16.26" vector-effect="none"/><line class="cls-1" x1="1174.64" y1="894.97" x2="1174.64" y2="27.58" vector-effect="none"/><polyline class="cls-1" points="42.22 846.51 41.62 846.53 41.02 846.65 40.45 846.87 39.91 847.13 39.41 847.47 38.96 847.88 38.57 848.36 38.25 848.86 37.99 849.41 37.81 849.99 37.71 850.59 37.69 851.19 37.75 851.79 37.89 852.39 38.11 852.94 38.4 853.47 38.76 853.97 39.18 854.4 39.66 854.76 40.18 855.08 40.74 855.32 41.32 855.48 41.92 855.56 42.53 855.56 43.13 855.48 43.71 855.32 44.27 855.08 44.79 854.76 45.27 854.4 45.69 853.97 46.05 853.47 46.34 852.94 46.55 852.39 46.7 851.79 46.76 851.19 46.74 850.59 46.63 849.99 46.46 849.41 46.2 848.86 45.87 848.36 45.48 847.88 45.03 847.47 44.53 847.13 43.99 846.87 43.42 846.65 42.83 846.53 42.22 846.51" vector-effect="none"/><polyline class="cls-1" points="42.22 66.99 41.62 67.04 41.02 67.16 40.45 67.35 39.91 67.62 39.41 67.98 38.96 68.38 38.57 68.84 38.25 69.34 37.99 69.9 37.81 70.47 37.71 71.07 37.69 71.67 37.75 72.27 37.89 72.87 38.11 73.45 38.4 73.98 38.76 74.46 39.18 74.89 39.66 75.27 40.18 75.58 40.74 75.82 41.32 75.97 41.92 76.06 42.53 76.06 43.13 75.97 43.71 75.82 44.27 75.58 44.79 75.27 45.27 74.89 45.69 74.46 46.05 73.98 46.34 73.45 46.55 72.87 46.7 72.27 46.76 71.67 46.74 71.07 46.63 70.47 46.46 69.9 46.2 69.34 45.87 68.84 45.48 68.38 45.03 67.98 44.53 67.62 43.99 67.35 43.42 67.16 42.83 67.04 42.22 66.99" vector-effect="none"/><polyline class="cls-1" points="84.74 24.46 84.14 24.51 83.54 24.63 82.97 24.82 82.43 25.11 81.93 25.45 81.48 25.86 81.09 26.31 80.76 26.84 80.51 27.39 80.33 27.97 80.23 28.57 80.21 29.17 80.27 29.77 80.41 30.34 80.63 30.92 80.92 31.45 81.28 31.93 81.7 32.38 82.17 32.74 82.7 33.06 83.25 33.3 83.84 33.46 84.44 33.54 85.04 33.54 85.65 33.46 86.23 33.3 86.79 33.06 87.31 32.74 87.78 32.38 88.21 31.93 88.56 31.45 88.86 30.92 89.07 30.34 89.21 29.77 89.27 29.17 89.25 28.57 89.15 27.97 88.97 27.39 88.72 26.84 88.39 26.31 88 25.86 87.55 25.45 87.05 25.11 86.51 24.82 85.94 24.63 85.35 24.51 84.74 24.46" vector-effect="none"/><polyline class="cls-1" points="84.74 889.02 84.14 889.06 83.54 889.18 82.97 889.38 82.43 889.65 81.93 889.99 81.48 890.4 81.09 890.87 80.76 891.37 80.51 891.92 80.33 892.5 80.23 893.1 80.21 893.71 80.27 894.31 80.41 894.9 80.63 895.46 80.92 895.99 81.28 896.48 81.7 896.92 82.17 897.3 82.7 897.6 83.25 897.84 83.84 898 84.44 898.08 85.04 898.08 85.65 898 86.23 897.84 86.79 897.6 87.31 897.3 87.78 896.92 88.21 896.48 88.56 895.99 88.86 895.46 89.07 894.9 89.21 894.31 89.27 893.71 89.25 893.1 89.15 892.5 88.97 891.92 88.72 891.37 88.39 890.87 88 890.4 87.55 889.99 87.05 889.65 86.51 889.38 85.94 889.18 85.35 889.06 84.74 889.02" vector-effect="none"/><polyline class="cls-1" points="420.64 338.84 420.03 338.86 419.44 338.98 418.87 339.2 418.33 339.46 417.83 339.8 417.38 340.21 416.99 340.66 416.66 341.19 416.41 341.74 416.23 342.32 416.13 342.92 416.11 343.52 416.17 344.12 416.31 344.72 416.52 345.27 416.82 345.8 417.17 346.3 417.6 346.73 418.07 347.09 418.59 347.41 419.15 347.65 419.74 347.81 420.34 347.89 420.94 347.89 421.54 347.81 422.13 347.65 422.69 347.41 423.21 347.09 423.68 346.73 424.1 346.3 424.46 345.8 424.75 345.27 424.97 344.72 425.11 344.12 425.17 343.52 425.15 342.92 425.05 342.32 424.87 341.74 424.62 341.19 424.29 340.66 423.9 340.21 423.45 339.8 422.95 339.46 422.41 339.2 421.84 338.98 421.24 338.86 420.64 338.84" vector-effect="none"/><polyline class="cls-1" points="602.05 24.46 601.45 24.51 600.85 24.63 600.28 24.82 599.74 25.11 599.24 25.45 598.79 25.86 598.4 26.31 598.07 26.84 597.82 27.39 597.64 27.97 597.54 28.57 597.52 29.17 597.58 29.77 597.72 30.34 597.94 30.92 598.23 31.45 598.59 31.93 599.01 32.38 599.49 32.74 600.01 33.06 600.56 33.3 601.15 33.46 601.75 33.54 602.35 33.54 602.96 33.46 603.54 33.3 604.1 33.06 604.62 32.74 605.09 32.38 605.51 31.93 605.87 31.45 606.16 30.92 606.38 30.34 606.52 29.77 606.58 29.17 606.56 28.57 606.46 27.97 606.28 27.39 606.03 26.84 605.7 26.31 605.31 25.86 604.86 25.45 604.36 25.11 603.82 24.82 603.25 24.63 602.66 24.51 602.05 24.46" vector-effect="none"/><polyline class="cls-1" points="602.05 889.02 601.45 889.06 600.85 889.18 600.28 889.38 599.74 889.65 599.24 889.99 598.79 890.4 598.4 890.87 598.07 891.37 597.82 891.92 597.64 892.5 597.54 893.1 597.52 893.71 597.58 894.31 597.72 894.9 597.94 895.46 598.23 895.99 598.59 896.48 599.01 896.92 599.49 897.3 600.01 897.6 600.56 897.84 601.15 898 601.75 898.08 602.35 898.08 602.96 898 603.54 897.84 604.1 897.6 604.62 897.3 605.09 896.92 605.51 896.48 605.87 895.99 606.16 895.46 606.38 894.9 606.52 894.31 606.58 893.71 606.56 893.1 606.46 892.5 606.28 891.92 606.03 891.37 605.7 890.87 605.31 890.4 604.86 889.99 604.36 889.65 603.82 889.38 603.25 889.18 602.66 889.06 602.05 889.02" vector-effect="none"/><polyline class="cls-1" points="715.43 633.63 714.83 633.65 714.24 633.77 713.66 633.99 713.12 634.25 712.62 634.59 712.17 635 711.78 635.48 711.46 635.98 711.2 636.53 711.02 637.11 710.92 637.71 710.9 638.31 710.96 638.91 711.1 639.51 711.32 640.06 711.61 640.59 711.97 641.09 712.39 641.53 712.87 641.91 713.39 642.2 713.95 642.44 714.53 642.61 715.13 642.68 715.74 642.68 716.34 642.61 716.92 642.44 717.48 642.2 718 641.91 718.48 641.53 718.9 641.09 719.26 640.59 719.55 640.06 719.77 639.51 719.91 638.91 719.97 638.31 719.95 637.71 719.85 637.11 719.67 636.53 719.41 635.98 719.09 635.48 718.7 635 718.24 634.59 717.74 634.25 717.2 633.99 716.63 633.77 716.04 633.65 715.43 633.63" vector-effect="none"/><polyline class="cls-1" points="715.43 338.84 714.83 338.86 714.24 338.98 713.66 339.2 713.12 339.46 712.62 339.8 712.17 340.21 711.78 340.66 711.46 341.19 711.2 341.74 711.02 342.32 710.92 342.92 710.9 343.52 710.96 344.12 711.1 344.72 711.32 345.27 711.61 345.8 711.97 346.3 712.39 346.73 712.87 347.09 713.39 347.41 713.95 347.65 714.53 347.81 715.13 347.89 715.74 347.89 716.34 347.81 716.92 347.65 717.48 347.41 718 347.09 718.48 346.73 718.9 346.3 719.26 345.8 719.55 345.27 719.77 344.72 719.91 344.12 719.97 343.52 719.95 342.92 719.85 342.32 719.67 341.74 719.41 341.19 719.09 340.66 718.7 340.21 718.24 339.8 717.74 339.46 717.2 339.2 716.63 338.98 716.04 338.86 715.43 338.84" vector-effect="none"/><polyline class="cls-1" points="1119.36 889.02 1118.76 889.06 1118.16 889.18 1117.59 889.38 1117.05 889.65 1116.55 889.99 1116.1 890.4 1115.71 890.87 1115.39 891.37 1115.13 891.92 1114.95 892.5 1114.85 893.1 1114.83 893.71 1114.89 894.31 1115.03 894.9 1115.25 895.46 1115.54 895.99 1115.9 896.48 1116.32 896.92 1116.79 897.3 1117.31 897.6 1117.87 897.84 1118.46 898 1119.06 898.08 1119.66 898.08 1120.26 898 1120.85 897.84 1121.41 897.6 1121.93 897.3 1122.4 896.92 1122.83 896.48 1123.19 895.99 1123.48 895.46 1123.69 894.9 1123.83 894.31 1123.89 893.71 1123.87 893.1 1123.77 892.5 1123.59 891.92 1123.34 891.37 1123.01 890.87 1122.62 890.4 1122.17 889.99 1121.67 889.65 1121.13 889.38 1120.56 889.18 1119.97 889.06 1119.36 889.02" vector-effect="none"/><polyline class="cls-1" points="1119.36 24.46 1118.76 24.51 1118.16 24.63 1117.59 24.82 1117.05 25.11 1116.55 25.45 1116.1 25.86 1115.71 26.31 1115.39 26.84 1115.13 27.39 1114.95 27.97 1114.85 28.57 1114.83 29.17 1114.89 29.77 1115.03 30.34 1115.25 30.92 1115.54 31.45 1115.9 31.93 1116.32 32.38 1116.79 32.74 1117.31 33.06 1117.87 33.3 1118.46 33.46 1119.06 33.54 1119.66 33.54 1120.26 33.46 1120.85 33.3 1121.41 33.06 1121.93 32.74 1122.4 32.38 1122.83 31.93 1123.19 31.45 1123.48 30.92 1123.69 30.34 1123.83 29.77 1123.89 29.17 1123.87 28.57 1123.77 27.97 1123.59 27.39 1123.34 26.84 1123.01 26.31 1122.62 25.86 1122.17 25.45 1121.67 25.11 1121.13 24.82 1120.56 24.63 1119.97 24.51 1119.36 24.46" vector-effect="none"/><polyline class="cls-1" points="1161.88 846.51 1161.28 846.53 1160.68 846.65 1160.11 846.87 1159.57 847.13 1159.07 847.47 1158.62 847.88 1158.23 848.36 1157.9 848.86 1157.65 849.41 1157.47 849.99 1157.37 850.59 1157.35 851.19 1157.41 851.79 1157.55 852.39 1157.77 852.94 1158.06 853.47 1158.42 853.97 1158.84 854.4 1159.31 854.76 1159.84 855.08 1160.39 855.32 1160.98 855.48 1161.58 855.56 1162.18 855.56 1162.78 855.48 1163.37 855.32 1163.92 855.08 1164.45 854.76 1164.92 854.4 1165.34 853.97 1165.7 853.47 1165.99 852.94 1166.21 852.39 1166.35 851.79 1166.41 851.19 1166.39 850.59 1166.29 849.99 1166.11 849.41 1165.86 848.86 1165.53 848.36 1165.14 847.88 1164.69 847.47 1164.19 847.13 1163.65 846.87 1163.08 846.65 1162.48 846.53 1161.88 846.51" vector-effect="none"/><polyline class="cls-1" points="1161.88 66.99 1161.28 67.04 1160.68 67.16 1160.11 67.35 1159.57 67.62 1159.07 67.98 1158.62 68.38 1158.23 68.84 1157.9 69.34 1157.65 69.9 1157.47 70.47 1157.37 71.07 1157.35 71.67 1157.41 72.27 1157.55 72.87 1157.77 73.45 1158.06 73.98 1158.42 74.46 1158.84 74.89 1159.31 75.27 1159.84 75.58 1160.39 75.82 1160.98 75.97 1161.58 76.06 1162.18 76.06 1162.78 75.97 1163.37 75.82 1163.92 75.58 1164.45 75.27 1164.92 74.89 1165.34 74.46 1165.7 73.98 1165.99 73.45 1166.21 72.87 1166.35 72.27 1166.41 71.67 1166.39 71.07 1166.29 70.47 1166.11 69.9 1165.86 69.34 1165.53 68.84 1165.14 68.38 1164.69 67.98 1164.19 67.62 1163.65 67.35 1163.08 67.16 1162.48 67.04 1161.88 66.99" vector-effect="none"/><line class="cls-1" x1="1192.15" y1="137.79" x2="1192.15" y2="209.79" vector-effect="none"/><line class="cls-1" x1="1183.64" y1="137.79" x2="1192.15" y2="137.79" vector-effect="none"/><line class="cls-1" x1="1201.64" y1="33.76" x2="1183.64" y2="33.76" vector-effect="none"/><line class="cls-1" x1="1201.64" y1="33.76" x2="1201.64" y2="25.26" vector-effect="none"/><line class="cls-1" x1="1201.64" y1="25.26" x2="1219.64" y2="25.26" vector-effect="none"/><line class="cls-1" x1="1219.64" y1="33.76" x2="1219.64" y2="25.26" vector-effect="none"/><line class="cls-1" x1="1237.64" y1="33.76" x2="1219.64" y2="33.76" vector-effect="none"/><line class="cls-1" x1="1237.64" y1="33.76" x2="1237.64" y2="25.26" vector-effect="none"/><line class="cls-1" x1="1237.64" y1="25.26" x2="1255.64" y2="25.26" vector-effect="none"/><line class="cls-1" x1="1255.64" y1="33.76" x2="1255.64" y2="25.26" vector-effect="none"/><line class="cls-1" x1="1273.64" y1="33.76" x2="1255.64" y2="33.76" vector-effect="none"/><line class="cls-1" x1="1273.64" y1="33.76" x2="1273.64" y2="25.26" vector-effect="none"/><line class="cls-1" x1="1273.64" y1="25.26" x2="1291.64" y2="25.26" vector-effect="none"/><line class="cls-1" x1="1291.64" y1="33.76" x2="1291.64" y2="25.26" vector-effect="none"/><line class="cls-1" x1="1309.64" y1="33.76" x2="1291.64" y2="33.76" vector-effect="none"/><line class="cls-1" x1="1309.64" y1="33.76" x2="1309.64" y2="25.26" vector-effect="none"/><line class="cls-1" x1="1309.64" y1="25.26" x2="1327.64" y2="25.26" vector-effect="none"/><line class="cls-1" x1="1327.64" y1="33.76" x2="1327.64" y2="25.26" vector-effect="none"/><line class="cls-1" x1="1345.64" y1="33.76" x2="1327.64" y2="33.76" vector-effect="none"/><line class="cls-1" x1="1345.64" y1="33.76" x2="1345.64" y2="25.26" vector-effect="none"/><line class="cls-1" x1="1345.64" y1="25.26" x2="1363.64" y2="25.26" vector-effect="none"/><line class="cls-1" x1="1363.64" y1="33.76" x2="1363.64" y2="25.26" vector-effect="none"/><line class="cls-1" x1="1381.64" y1="33.76" x2="1363.64" y2="33.76" vector-effect="none"/><line class="cls-1" x1="1381.64" y1="33.76" x2="1381.64" y2="25.26" vector-effect="none"/><line class="cls-1" x1="1381.64" y1="25.26" x2="1399.64" y2="25.26" vector-effect="none"/><line class="cls-1" x1="1399.64" y1="33.76" x2="1399.64" y2="25.26" vector-effect="none"/><line class="cls-1" x1="1417.64" y1="33.76" x2="1399.64" y2="33.76" vector-effect="none"/><line class="cls-1" x1="1417.64" y1="33.76" x2="1417.64" y2="25.26" vector-effect="none"/><line class="cls-1" x1="1417.64" y1="25.26" x2="1435.64" y2="25.26" vector-effect="none"/><line class="cls-1" x1="1435.64" y1="25.26" x2="1435.64" y2="898.3" vector-effect="none"/><line class="cls-1" x1="1417.64" y1="898.3" x2="1435.64" y2="898.3" vector-effect="none"/><line class="cls-1" x1="1417.64" y1="889.8" x2="1417.64" y2="898.3" vector-effect="none"/><line class="cls-1" x1="1417.64" y1="889.8" x2="1399.64" y2="889.8" vector-effect="none"/><line class="cls-1" x1="1399.64" y1="889.8" x2="1399.64" y2="898.3" vector-effect="none"/><line class="cls-1" x1="1381.64" y1="898.3" x2="1399.64" y2="898.3" vector-effect="none"/><line class="cls-1" x1="1381.64" y1="889.8" x2="1381.64" y2="898.3" vector-effect="none"/><line class="cls-1" x1="1381.64" y1="889.8" x2="1363.64" y2="889.8" vector-effect="none"/><line class="cls-1" x1="1363.64" y1="889.8" x2="1363.64" y2="898.3" vector-effect="none"/><line class="cls-1" x1="1345.64" y1="898.3" x2="1363.64" y2="898.3" vector-effect="none"/><line class="cls-1" x1="1345.64" y1="889.8" x2="1345.64" y2="898.3" vector-effect="none"/><line class="cls-1" x1="1345.64" y1="889.8" x2="1327.64" y2="889.8" vector-effect="none"/><line class="cls-1" x1="1327.64" y1="889.8" x2="1327.64" y2="898.3" vector-effect="none"/><line class="cls-1" x1="1309.64" y1="898.3" x2="1327.64" y2="898.3" vector-effect="none"/><line class="cls-1" x1="1309.64" y1="889.8" x2="1309.64" y2="898.3" vector-effect="none"/><line class="cls-1" x1="1309.64" y1="889.8" x2="1291.64" y2="889.8" vector-effect="none"/><line class="cls-1" x1="1291.64" y1="889.8" x2="1291.64" y2="898.3" vector-effect="none"/><line class="cls-1" x1="1273.64" y1="898.3" x2="1291.64" y2="898.3" vector-effect="none"/><line class="cls-1" x1="1273.64" y1="889.8" x2="1273.64" y2="898.3" vector-effect="none"/><line class="cls-1" x1="1273.64" y1="889.8" x2="1255.64" y2="889.8" vector-effect="none"/><line class="cls-1" x1="1255.64" y1="889.8" x2="1255.64" y2="898.3" vector-effect="none"/><line class="cls-1" x1="1237.64" y1="898.3" x2="1255.64" y2="898.3" vector-effect="none"/><line class="cls-1" x1="1237.64" y1="889.8" x2="1237.64" y2="898.3" vector-effect="none"/><line class="cls-1" x1="1237.64" y1="889.8" x2="1219.64" y2="889.8" vector-effect="none"/><line class="cls-1" x1="1219.64" y1="889.8" x2="1219.64" y2="898.3" vector-effect="none"/><line class="cls-1" x1="1201.64" y1="898.3" x2="1219.64" y2="898.3" vector-effect="none"/><line class="cls-1" x1="1201.64" y1="889.8" x2="1201.64" y2="898.3" vector-effect="none"/><line class="cls-1" x1="1201.64" y1="889.8" x2="1183.64" y2="889.8" vector-effect="none"/><line class="cls-1" x1="1183.64" y1="785.77" x2="1183.64" y2="889.8" vector-effect="none"/><line class="cls-1" x1="1183.64" y1="785.77" x2="1192.15" y2="785.77" vector-effect="none"/><line class="cls-1" x1="1192.15" y1="713.77" x2="1192.15" y2="785.77" vector-effect="none"/><line class="cls-1" x1="1183.64" y1="713.77" x2="1192.15" y2="713.77" vector-effect="none"/><line class="cls-1" x1="1183.64" y1="641.78" x2="1183.64" y2="713.77" vector-effect="none"/><line class="cls-1" x1="1183.64" y1="641.78" x2="1192.15" y2="641.78" vector-effect="none"/><line class="cls-1" x1="1192.15" y1="569.78" x2="1192.15" y2="641.78" vector-effect="none"/><line class="cls-1" x1="1183.64" y1="569.78" x2="1192.15" y2="569.78" vector-effect="none"/><line class="cls-1" x1="1183.64" y1="497.78" x2="1183.64" y2="569.78" vector-effect="none"/><line class="cls-1" x1="1183.64" y1="497.78" x2="1192.15" y2="497.78" vector-effect="none"/><line class="cls-1" x1="1192.15" y1="425.78" x2="1192.15" y2="497.78" vector-effect="none"/><line class="cls-1" x1="1183.64" y1="425.78" x2="1192.15" y2="425.78" vector-effect="none"/><line class="cls-1" x1="1183.64" y1="353.78" x2="1183.64" y2="425.78" vector-effect="none"/><line class="cls-1" x1="1183.64" y1="353.78" x2="1192.15" y2="353.78" vector-effect="none"/><line class="cls-1" x1="1192.15" y1="281.78" x2="1192.15" y2="353.78" vector-effect="none"/><line class="cls-1" x1="1183.64" y1="281.78" x2="1192.15" y2="281.78" vector-effect="none"/><line class="cls-1" x1="1183.64" y1="209.79" x2="1192.15" y2="209.79" vector-effect="none"/><line class="cls-1" x1="1183.64" y1="33.76" x2="1183.64" y2="137.79" vector-effect="none"/><line class="cls-1" x1="1183.64" y1="209.79" x2="1183.64" y2="281.78" vector-effect="none"/><line class="cls-1" x1="1444.64" y1="785.73" x2="1444.64" y2="889.75" vector-effect="none"/><line class="cls-1" x1="1444.64" y1="641.73" x2="1444.64" y2="713.73" vector-effect="none"/><line class="cls-1" x1="1444.64" y1="497.73" x2="1444.64" y2="569.73" vector-effect="none"/><line class="cls-1" x1="1444.64" y1="353.74" x2="1444.64" y2="425.73" vector-effect="none"/><line class="cls-1" x1="1453.14" y1="137.74" x2="1453.14" y2="209.74" vector-effect="none"/><line class="cls-1" x1="1444.64" y1="137.74" x2="1453.14" y2="137.74" vector-effect="none"/><line class="cls-1" x1="1462.64" y1="33.71" x2="1444.64" y2="33.71" vector-effect="none"/><line class="cls-1" x1="1462.64" y1="33.71" x2="1462.64" y2="25.21" vector-effect="none"/><line class="cls-1" x1="1462.64" y1="25.21" x2="1480.64" y2="25.21" vector-effect="none"/><line class="cls-1" x1="1480.64" y1="33.71" x2="1480.64" y2="25.21" vector-effect="none"/><line class="cls-1" x1="1498.64" y1="33.71" x2="1480.64" y2="33.71" vector-effect="none"/><line class="cls-1" x1="1498.64" y1="33.71" x2="1498.64" y2="25.21" vector-effect="none"/><line class="cls-1" x1="1498.64" y1="25.21" x2="1516.64" y2="25.21" vector-effect="none"/><line class="cls-1" x1="1516.64" y1="33.71" x2="1516.64" y2="25.21" vector-effect="none"/><line class="cls-1" x1="1534.64" y1="33.71" x2="1516.64" y2="33.71" vector-effect="none"/><line class="cls-1" x1="1534.64" y1="33.71" x2="1534.64" y2="25.21" vector-effect="none"/><line class="cls-1" x1="1534.64" y1="25.21" x2="1552.64" y2="25.21" vector-effect="none"/><line class="cls-1" x1="1552.64" y1="33.71" x2="1552.64" y2="25.21" vector-effect="none"/><line class="cls-1" x1="1570.64" y1="33.71" x2="1552.64" y2="33.71" vector-effect="none"/><line class="cls-1" x1="1570.64" y1="33.71" x2="1570.64" y2="25.21" vector-effect="none"/><line class="cls-1" x1="1570.64" y1="25.21" x2="1588.64" y2="25.21" vector-effect="none"/><line class="cls-1" x1="1588.64" y1="33.71" x2="1588.64" y2="25.21" vector-effect="none"/><line class="cls-1" x1="1606.64" y1="33.71" x2="1588.64" y2="33.71" vector-effect="none"/><line class="cls-1" x1="1606.64" y1="33.71" x2="1606.64" y2="25.21" vector-effect="none"/><line class="cls-1" x1="1606.64" y1="25.21" x2="1624.64" y2="25.21" vector-effect="none"/><line class="cls-1" x1="1624.64" y1="33.71" x2="1624.64" y2="25.21" vector-effect="none"/><line class="cls-1" x1="1642.64" y1="33.71" x2="1624.64" y2="33.71" vector-effect="none"/><line class="cls-1" x1="1642.64" y1="33.71" x2="1642.64" y2="25.21" vector-effect="none"/><line class="cls-1" x1="1642.64" y1="25.21" x2="1660.64" y2="25.21" vector-effect="none"/><line class="cls-1" x1="1660.64" y1="33.71" x2="1660.64" y2="25.21" vector-effect="none"/><line class="cls-1" x1="1678.64" y1="33.71" x2="1660.64" y2="33.71" vector-effect="none"/><line class="cls-1" x1="1678.64" y1="33.71" x2="1678.64" y2="25.21" vector-effect="none"/><line class="cls-1" x1="1678.64" y1="25.21" x2="1696.64" y2="25.21" vector-effect="none"/><line class="cls-1" x1="1696.64" y1="25.21" x2="1696.64" y2="898.26" vector-effect="none"/><line class="cls-1" x1="1678.64" y1="898.26" x2="1696.64" y2="898.26" vector-effect="none"/><line class="cls-1" x1="1678.64" y1="889.75" x2="1678.64" y2="898.26" vector-effect="none"/><line class="cls-1" x1="1678.64" y1="889.75" x2="1660.64" y2="889.75" vector-effect="none"/><line class="cls-1" x1="1660.64" y1="889.75" x2="1660.64" y2="898.26" vector-effect="none"/><line class="cls-1" x1="1642.64" y1="898.26" x2="1660.64" y2="898.26" vector-effect="none"/><line class="cls-1" x1="1642.64" y1="889.75" x2="1642.64" y2="898.26" vector-effect="none"/><line class="cls-1" x1="1642.64" y1="889.75" x2="1624.64" y2="889.75" vector-effect="none"/><line class="cls-1" x1="1624.64" y1="889.75" x2="1624.64" y2="898.26" vector-effect="none"/><line class="cls-1" x1="1606.64" y1="898.26" x2="1624.64" y2="898.26" vector-effect="none"/><line class="cls-1" x1="1606.64" y1="889.75" x2="1606.64" y2="898.26" vector-effect="none"/><line class="cls-1" x1="1606.64" y1="889.75" x2="1588.64" y2="889.75" vector-effect="none"/><line class="cls-1" x1="1588.64" y1="889.75" x2="1588.64" y2="898.26" vector-effect="none"/><line class="cls-1" x1="1570.64" y1="898.26" x2="1588.64" y2="898.26" vector-effect="none"/><line class="cls-1" x1="1570.64" y1="889.75" x2="1570.64" y2="898.26" vector-effect="none"/><line class="cls-1" x1="1570.64" y1="889.75" x2="1552.64" y2="889.75" vector-effect="none"/><line class="cls-1" x1="1552.64" y1="889.75" x2="1552.64" y2="898.26" vector-effect="none"/><line class="cls-1" x1="1534.64" y1="898.26" x2="1552.64" y2="898.26" vector-effect="none"/><line class="cls-1" x1="1534.64" y1="889.75" x2="1534.64" y2="898.26" vector-effect="none"/><line class="cls-1" x1="1534.64" y1="889.75" x2="1516.64" y2="889.75" vector-effect="none"/><line class="cls-1" x1="1516.64" y1="889.75" x2="1516.64" y2="898.26" vector-effect="none"/><line class="cls-1" x1="1498.64" y1="898.26" x2="1516.64" y2="898.26" vector-effect="none"/><line class="cls-1" x1="1498.64" y1="889.75" x2="1498.64" y2="898.26" vector-effect="none"/><line class="cls-1" x1="1498.64" y1="889.75" x2="1480.64" y2="889.75" vector-effect="none"/><line class="cls-1" x1="1480.64" y1="889.75" x2="1480.64" y2="898.26" vector-effect="none"/><line class="cls-1" x1="1462.64" y1="898.26" x2="1480.64" y2="898.26" vector-effect="none"/><line class="cls-1" x1="1462.64" y1="889.75" x2="1462.64" y2="898.26" vector-effect="none"/><line class="cls-1" x1="1462.64" y1="889.75" x2="1444.64" y2="889.75" vector-effect="none"/><line class="cls-1" x1="1444.64" y1="785.73" x2="1453.14" y2="785.73" vector-effect="none"/><line class="cls-1" x1="1453.14" y1="713.73" x2="1453.14" y2="785.73" vector-effect="none"/><line class="cls-1" x1="1444.64" y1="713.73" x2="1453.14" y2="713.73" vector-effect="none"/><line class="cls-1" x1="1444.64" y1="641.73" x2="1453.14" y2="641.73" vector-effect="none"/><line class="cls-1" x1="1453.14" y1="569.73" x2="1453.14" y2="641.73" vector-effect="none"/><line class="cls-1" x1="1444.64" y1="569.73" x2="1453.14" y2="569.73" vector-effect="none"/><line class="cls-1" x1="1444.64" y1="497.73" x2="1453.14" y2="497.73" vector-effect="none"/><line class="cls-1" x1="1453.14" y1="425.73" x2="1453.14" y2="497.73" vector-effect="none"/><line class="cls-1" x1="1444.64" y1="425.73" x2="1453.14" y2="425.73" vector-effect="none"/><line class="cls-1" x1="1444.64" y1="353.74" x2="1453.14" y2="353.74" vector-effect="none"/><line class="cls-1" x1="1453.14" y1="281.74" x2="1453.14" y2="353.74" vector-effect="none"/><line class="cls-1" x1="1444.64" y1="281.74" x2="1453.14" y2="281.74" vector-effect="none"/><line class="cls-1" x1="1444.64" y1="209.74" x2="1453.14" y2="209.74" vector-effect="none"/><line class="cls-1" x1="1444.64" y1="33.71" x2="1444.64" y2="137.74" vector-effect="none"/><line class="cls-1" x1="1444.64" y1="209.74" x2="1444.64" y2="281.74" vector-effect="none"/><line class="cls-1" x1="548.67" y1="1112.84" x2="548.67" y2="1163.83" vector-effect="none"/><line class="cls-1" x1="27.1" y1="1163.83" x2="548.67" y2="1163.83" vector-effect="none"/><line class="cls-1" x1="27.1" y1="1163.83" x2="27.1" y2="1145.83" vector-effect="none"/><line class="cls-1" x1="18.6" y1="1145.83" x2="27.1" y2="1145.83" vector-effect="none"/><line class="cls-1" x1="18.6" y1="1127.83" x2="18.6" y2="1145.83" vector-effect="none"/><line class="cls-1" x1="18.6" y1="1127.83" x2="27.1" y2="1127.83" vector-effect="none"/><line class="cls-1" x1="27.1" y1="1127.83" x2="27.1" y2="1109.84" vector-effect="none"/><line class="cls-1" x1="27.1" y1="1109.84" x2="18.6" y2="1109.84" vector-effect="none"/><line class="cls-1" x1="18.6" y1="1091.84" x2="18.6" y2="1109.84" vector-effect="none"/><line class="cls-1" x1="18.6" y1="1091.84" x2="27.1" y2="1091.84" vector-effect="none"/><line class="cls-1" x1="27.1" y1="1091.84" x2="27.1" y2="1073.84" vector-effect="none"/><line class="cls-1" x1="27.1" y1="1073.84" x2="18.6" y2="1073.84" vector-effect="none"/><line class="cls-1" x1="18.6" y1="1055.84" x2="18.6" y2="1073.84" vector-effect="none"/><line class="cls-1" x1="18.6" y1="1055.84" x2="27.1" y2="1055.84" vector-effect="none"/><line class="cls-1" x1="27.1" y1="1055.84" x2="27.1" y2="1037.84" vector-effect="none"/><line class="cls-1" x1="27.1" y1="1037.84" x2="18.6" y2="1037.84" vector-effect="none"/><line class="cls-1" x1="18.6" y1="1019.84" x2="18.6" y2="1037.84" vector-effect="none"/><line class="cls-1" x1="18.6" y1="1019.84" x2="27.1" y2="1019.84" vector-effect="none"/><line class="cls-1" x1="27.1" y1="1019.84" x2="27.1" y2="1001.84" vector-effect="none"/><line class="cls-1" x1="18.6" y1="983.84" x2="18.6" y2="1001.84" vector-effect="none"/><line class="cls-1" x1="18.6" y1="983.84" x2="27.1" y2="983.84" vector-effect="none"/><line class="cls-1" x1="27.1" y1="983.84" x2="27.1" y2="965.84" vector-effect="none"/><line class="cls-1" x1="27.1" y1="965.84" x2="18.6" y2="965.84" vector-effect="none"/><line class="cls-1" x1="18.6" y1="947.84" x2="18.6" y2="965.84" vector-effect="none"/><line class="cls-1" x1="18.6" y1="947.84" x2="27.1" y2="947.84" vector-effect="none"/><line class="cls-1" x1="27.1" y1="947.84" x2="27.1" y2="929.84" vector-effect="none"/><line class="cls-1" x1="27.1" y1="929.84" x2="18.6" y2="929.84" vector-effect="none"/><line class="cls-1" x1="18.6" y1="911.84" x2="18.6" y2="929.84" vector-effect="none"/><line class="cls-1" x1="18.6" y1="911.84" x2="131.13" y2="911.84" vector-effect="none"/><line class="cls-1" x1="131.13" y1="911.84" x2="131.13" y2="920.34" vector-effect="none"/><line class="cls-1" x1="131.13" y1="920.34" x2="203.13" y2="920.34" vector-effect="none"/><line class="cls-1" x1="203.13" y1="911.84" x2="203.13" y2="920.34" vector-effect="none"/><line class="cls-1" x1="275.13" y1="911.84" x2="275.13" y2="920.34" vector-effect="none"/><line class="cls-1" x1="275.13" y1="920.34" x2="347.13" y2="920.34" vector-effect="none"/><line class="cls-1" x1="347.13" y1="911.84" x2="347.13" y2="920.34" vector-effect="none"/><line class="cls-1" x1="419.13" y1="911.84" x2="419.13" y2="920.34" vector-effect="none"/><line class="cls-1" x1="419.13" y1="920.34" x2="491.12" y2="920.34" vector-effect="none"/><line class="cls-1" x1="491.12" y1="911.84" x2="491.12" y2="920.34" vector-effect="none"/><line class="cls-1" x1="563.12" y1="911.84" x2="563.12" y2="920.34" vector-effect="none"/><line class="cls-1" x1="563.12" y1="920.34" x2="635.12" y2="920.34" vector-effect="none"/><line class="cls-1" x1="635.12" y1="911.84" x2="635.12" y2="920.34" vector-effect="none"/><line class="cls-1" x1="707.12" y1="911.84" x2="707.12" y2="920.34" vector-effect="none"/><line class="cls-1" x1="707.12" y1="920.34" x2="779.12" y2="920.34" vector-effect="none"/><line class="cls-1" x1="779.12" y1="911.84" x2="779.12" y2="920.34" vector-effect="none"/><line class="cls-1" x1="891.65" y1="911.84" x2="891.65" y2="929.84" vector-effect="none"/><line class="cls-1" x1="883.15" y1="929.84" x2="891.65" y2="929.84" vector-effect="none"/><line class="cls-1" x1="883.15" y1="947.84" x2="883.15" y2="929.84" vector-effect="none"/><line class="cls-1" x1="891.65" y1="947.84" x2="883.15" y2="947.84" vector-effect="none"/><line class="cls-1" x1="891.65" y1="947.84" x2="891.65" y2="965.84" vector-effect="none"/><line class="cls-1" x1="883.15" y1="965.84" x2="891.65" y2="965.84" vector-effect="none"/><line class="cls-1" x1="883.15" y1="983.84" x2="883.15" y2="965.84" vector-effect="none"/><line class="cls-1" x1="891.65" y1="983.84" x2="883.15" y2="983.84" vector-effect="none"/><line class="cls-1" x1="891.65" y1="983.84" x2="891.65" y2="1001.84" vector-effect="none"/><line class="cls-1" x1="883.15" y1="1001.84" x2="891.65" y2="1001.84" vector-effect="none"/><line class="cls-1" x1="883.15" y1="1019.84" x2="883.15" y2="1001.84" vector-effect="none"/><line class="cls-1" x1="891.65" y1="1019.84" x2="883.15" y2="1019.84" vector-effect="none"/><line class="cls-1" x1="891.65" y1="1019.84" x2="891.65" y2="1037.84" vector-effect="none"/><line class="cls-1" x1="883.15" y1="1037.84" x2="891.65" y2="1037.84" vector-effect="none"/><line class="cls-1" x1="883.15" y1="1055.84" x2="883.15" y2="1037.84" vector-effect="none"/><line class="cls-1" x1="891.65" y1="1055.84" x2="883.15" y2="1055.84" vector-effect="none"/><line class="cls-1" x1="891.65" y1="1055.84" x2="891.65" y2="1073.84" vector-effect="none"/><line class="cls-1" x1="883.15" y1="1073.84" x2="891.65" y2="1073.84" vector-effect="none"/><line class="cls-1" x1="883.15" y1="1091.84" x2="883.15" y2="1073.84" vector-effect="none"/><line class="cls-1" x1="891.65" y1="1091.84" x2="883.15" y2="1091.84" vector-effect="none"/><line class="cls-1" x1="891.65" y1="1091.84" x2="891.65" y2="1109.84" vector-effect="none"/><line class="cls-1" x1="883.15" y1="1109.84" x2="891.65" y2="1109.84" vector-effect="none"/><line class="cls-1" x1="883.15" y1="1127.83" x2="883.15" y2="1109.84" vector-effect="none"/><line class="cls-1" x1="891.65" y1="1127.83" x2="883.15" y2="1127.83" vector-effect="none"/><line class="cls-1" x1="891.65" y1="1127.83" x2="891.65" y2="1145.83" vector-effect="none"/><line class="cls-1" x1="891.65" y1="1145.83" x2="883.15" y2="1145.83" vector-effect="none"/><line class="cls-1" x1="883.15" y1="1163.83" x2="883.15" y2="1145.83" vector-effect="none"/><line class="cls-1" x1="720.52" y1="1112.84" x2="720.52" y2="1163.83" vector-effect="none"/><line class="cls-1" x1="548.67" y1="1112.84" x2="720.52" y2="1112.84" vector-effect="none"/><line class="cls-1" x1="635.12" y1="911.84" x2="707.12" y2="911.84" vector-effect="none"/><line class="cls-1" x1="779.12" y1="911.84" x2="891.65" y2="911.84" vector-effect="none"/><line class="cls-1" x1="491.12" y1="911.84" x2="563.12" y2="911.84" vector-effect="none"/><line class="cls-1" x1="347.13" y1="911.84" x2="419.13" y2="911.84" vector-effect="none"/><line class="cls-1" x1="203.13" y1="911.84" x2="275.13" y2="911.84" vector-effect="none"/><line class="cls-1" x1="27.1" y1="1001.84" x2="18.6" y2="1001.84" vector-effect="none"/><line class="cls-1" x1="720.52" y1="1163.83" x2="883.15" y2="1163.83" vector-effect="none"/></svg>